<svg baseProfile="tiny" xmlns="http://www.w3.org/2000/svg" width="600" height="600"><path shape-rendering="optimizeSpeed" fill="#fff" d="M0 0h600v600H0z"/><path shape-rendering="optimizeSpeed" d="M24 24h19v19H24zm19 0h19v19H43zm19 0h19v19H62zm19 0h19v19H81zm19 0h19v19h-19zm19 0h19v19h-19zm19 0h19v19h-19zm38 0h19v19h-19zm38 0h19v19h-19zm38 0h19v19h-19zm19 0h19v19h-19zm38 0h19v19h-19zm38 0h19v19h-19zm19 0h19v19h-19zm19 0h19v19h-19zm19 0h19v19h-19zm38 0h19v19h-19zm19 0h19v19h-19zm19 0h19v19h-19zm19 0h19v19h-19zm19 0h19v19h-19zm19 0h19v19h-19zm19 0h19v19h-19zM24 43h19v19H24zm114 0h19v19h-19zm57 0h19v19h-19zm19 0h19v19h-19zm19 0h19v19h-19zm19 0h19v19h-19zm19 0h19v19h-19zm57 0h19v19h-19zm19 0h19v19h-19zm57 0h19v19h-19zm38 0h19v19h-19zm114 0h19v19h-19zM24 62h19v19H24zm38 0h19v19H62zm19 0h19v19H81zm19 0h19v19h-19zm38 0h19v19h-19zm38 0h19v19h-19zm19 0h19v19h-19zm19 0h19v19h-19zm95 0h19v19h-19zm57 0h19v19h-19zm19 0h19v19h-19zm19 0h19v19h-19zm38 0h19v19h-19zm38 0h19v19h-19zm19 0h19v19h-19zm19 0h19v19h-19zm38 0h19v19h-19zM24 81h19v19H24zm38 0h19v19H62zm19 0h19v19H81zm19 0h19v19h-19zm38 0h19v19h-19zm38 0h19v19h-19zm19 0h19v19h-19zm19 0h19v19h-19zm38 0h19v19h-19zm38 0h19v19h-19zm57 0h19v19h-19zm19 0h19v19h-19zm38 0h19v19h-19zm38 0h19v19h-19zm38 0h19v19h-19zm19 0h19v19h-19zm19 0h19v19h-19zm38 0h19v19h-19zM24 100h19v19H24zm38 0h19v19H62zm19 0h19v19H81zm19 0h19v19h-19zm38 0h19v19h-19zm38 0h19v19h-19zm57 0h19v19h-19zm19 0h19v19h-19zm38 0h19v19h-19zm38 0h19v19h-19zm57 0h19v19h-19zm57 0h19v19h-19zm38 0h19v19h-19zm19 0h19v19h-19zm19 0h19v19h-19zm38 0h19v19h-19zM24 119h19v19H24zm114 0h19v19h-19zm76 0h19v19h-19zm19 0h19v19h-19zm38 0h19v19h-19zm76 0h19v19h-19zm19 0h19v19h-19zm19 0h19v19h-19zm19 0h19v19h-19zm38 0h19v19h-19zm114 0h19v19h-19zM24 138h19v19H24zm19 0h19v19H43zm19 0h19v19H62zm19 0h19v19H81zm19 0h19v19h-19zm19 0h19v19h-19zm19 0h19v19h-19zm38 0h19v19h-19zm38 0h19v19h-19zm38 0h19v19h-19zm38 0h19v19h-19zm38 0h19v19h-19zm38 0h19v19h-19zm38 0h19v19h-19zm38 0h19v19h-19zm19 0h19v19h-19zm19 0h19v19h-19zm19 0h19v19h-19zm19 0h19v19h-19zm19 0h19v19h-19zm19 0h19v19h-19zm-342 19h19v19h-19zm38 0h19v19h-19zm57 0h19v19h-19zm38 0h19v19h-19zm19 0h19v19h-19zm19 0h19v19h-19zM24 176h19v19H24zm19 0h19v19H43zm19 0h19v19H62zm19 0h19v19H81zm57 0h19v19h-19zm38 0h19v19h-19zm38 0h19v19h-19zm19 0h19v19h-19zm19 0h19v19h-19zm19 0h19v19h-19zm38 0h19v19h-19zm19 0h19v19h-19zm19 0h19v19h-19zm19 0h19v19h-19zm57 0h19v19h-19zm57 0h19v19h-19zm19 0h19v19h-19zm19 0h19v19h-19zm38 0h19v19h-19zM24 195h19v19H24zm19 0h19v19H43zm38 0h19v19H81zm19 0h19v19h-19zm57 0h19v19h-19zm19 0h19v19h-19zm38 0h19v19h-19zm38 0h19v19h-19zm19 0h19v19h-19zm19 0h19v19h-19zm38 0h19v19h-19zm57 0h19v19h-19zm38 0h19v19h-19zm19 0h19v19h-19zm19 0h19v19h-19zm19 0h19v19h-19zm76 0h19v19h-19zM62 214h19v19H62zm19 0h19v19H81zm57 0h19v19h-19zm19 0h19v19h-19zm38 0h19v19h-19zm19 0h19v19h-19zm19 0h19v19h-19zm19 0h19v19h-19zm19 0h19v19h-19zm76 0h19v19h-19zm57 0h19v19h-19zm19 0h19v19h-19zm19 0h19v19h-19zm19 0h19v19h-19zm19 0h19v19h-19zm38 0h19v19h-19zm19 0h19v19h-19zM43 233h19v19H43zm19 0h19v19H62zm19 0h19v19H81zm19 0h19v19h-19zm19 0h19v19h-19zm76 0h19v19h-19zm19 0h19v19h-19zm114 0h19v19h-19zm57 0h19v19h-19zm76 0h19v19h-19zm19 0h19v19h-19zm19 0h19v19h-19zm57 0h19v19h-19zM24 252h19v19H24zm19 0h19v19H43zm19 0h19v19H62zm19 0h19v19H81zm19 0h19v19h-19zm19 0h19v19h-19zm19 0h19v19h-19zm38 0h19v19h-19zm19 0h19v19h-19zm19 0h19v19h-19zm38 0h19v19h-19zm38 0h19v19h-19zm19 0h19v19h-19zm19 0h19v19h-19zm19 0h19v19h-19zm19 0h19v19h-19zm38 0h19v19h-19zm95 0h19v19h-19zm19 0h19v19h-19zm-418 19h19v19h-19zm95 0h19v19h-19zm38 0h19v19h-19zm19 0h19v19h-19zm38 0h19v19h-19zm19 0h19v19h-19zm19 0h19v19h-19zm57 0h19v19h-19zm57 0h19v19h-19zm19 0h19v19h-19zm76 0h19v19h-19zm19 0h19v19h-19zM24 290h19v19H24zm38 0h19v19H62zm38 0h19v19h-19zm38 0h19v19h-19zm19 0h19v19h-19zm38 0h19v19h-19zm19 0h19v19h-19zm19 0h19v19h-19zm38 0h19v19h-19zm76 0h19v19h-19zm19 0h19v19h-19zm19 0h19v19h-19zm57 0h19v19h-19zm19 0h19v19h-19zm38 0h19v19h-19zm19 0h19v19h-19zm19 0h19v19h-19zm19 0h19v19h-19zM24 309h19v19H24zm38 0h19v19H62zm19 0h19v19H81zm76 0h19v19h-19zm19 0h19v19h-19zm19 0h19v19h-19zm19 0h19v19h-19zm19 0h19v19h-19zm57 0h19v19h-19zm95 0h19v19h-19zm76 0h19v19h-19zm19 0h19v19h-19zm57 0h19v19h-19zM24 328h19v19H24zm19 0h19v19H43zm19 0h19v19H62zm19 0h19v19H81zm19 0h19v19h-19zm38 0h19v19h-19zm19 0h19v19h-19zm95 0h19v19h-19zm38 0h19v19h-19zm38 0h19v19h-19zm57 0h19v19h-19zm19 0h19v19h-19zm19 0h19v19h-19zm38 0h19v19h-19zm19 0h19v19h-19zm57 0h19v19h-19zM62 347h19v19H62zm114 0h19v19h-19zm19 0h19v19h-19zm19 0h19v19h-19zm76 0h19v19h-19zm76 0h19v19h-19zm38 0h19v19h-19zm19 0h19v19h-19zm38 0h19v19h-19zm57 0h19v19h-19zm19 0h19v19h-19zM24 366h19v19H24zm38 0h19v19H62zm19 0h19v19H81zm38 0h19v19h-19zm19 0h19v19h-19zm57 0h19v19h-19zm19 0h19v19h-19zm57 0h19v19h-19zm19 0h19v19h-19zm19 0h19v19h-19zm19 0h19v19h-19zm171 0h19v19h-19zm19 0h19v19h-19zM81 385h19v19H81zm19 0h19v19h-19zm57 0h19v19h-19zm19 0h19v19h-19zm19 0h19v19h-19zm19 0h19v19h-19zm19 0h19v19h-19zm38 0h19v19h-19zm19 0h19v19h-19zm19 0h19v19h-19zm19 0h19v19h-19zm19 0h19v19h-19zm19 0h19v19h-19zm19 0h19v19h-19zm57 0h19v19h-19zm38 0h19v19h-19zm38 0h19v19h-19zM43 404h19v19H43zm95 0h19v19h-19zm19 0h19v19h-19zm38 0h19v19h-19zm76 0h19v19h-19zm19 0h19v19h-19zm57 0h19v19h-19zm57 0h19v19h-19zm19 0h19v19h-19zm19 0h19v19h-19zm19 0h19v19h-19zm19 0h19v19h-19zm19 0h19v19h-19zm19 0h19v19h-19zm-342 19h19v19h-19zm19 0h19v19h-19zm133 0h19v19h-19zm76 0h19v19h-19zm76 0h19v19h-19zm19 0h19v19h-19zm19 0h19v19h-19zm19 0h19v19h-19zm19 0h19v19h-19zM24 442h19v19H24zm19 0h19v19H43zm19 0h19v19H62zm19 0h19v19H81zm19 0h19v19h-19zm19 0h19v19h-19zm19 0h19v19h-19zm57 0h19v19h-19zm95 0h19v19h-19zm38 0h19v19h-19zm57 0h19v19h-19zm19 0h19v19h-19zm38 0h19v19h-19zm38 0h19v19h-19zm19 0h19v19h-19zm38 0h19v19h-19zM24 461h19v19H24zm114 0h19v19h-19zm57 0h19v19h-19zm19 0h19v19h-19zm19 0h19v19h-19zm19 0h19v19h-19zm19 0h19v19h-19zm19 0h19v19h-19zm38 0h19v19h-19zm38 0h19v19h-19zm19 0h19v19h-19zm19 0h19v19h-19zm76 0h19v19h-19zm76 0h19v19h-19zM24 480h19v19H24zm38 0h19v19H62zm19 0h19v19H81zm19 0h19v19h-19zm38 0h19v19h-19zm76 0h19v19h-19zm19 0h19v19h-19zm95 0h19v19h-19zm19 0h19v19h-19zm19 0h19v19h-19zm38 0h19v19h-19zm19 0h19v19h-19zm19 0h19v19h-19zm19 0h19v19h-19zm19 0h19v19h-19zm38 0h19v19h-19zM24 499h19v19H24zm38 0h19v19H62zm19 0h19v19H81zm19 0h19v19h-19zm38 0h19v19h-19zm38 0h19v19h-19zm57 0h19v19h-19zm38 0h19v19h-19zm38 0h19v19h-19zm19 0h19v19h-19zm19 0h19v19h-19zm19 0h19v19h-19zm57 0h19v19h-19zm38 0h19v19h-19zm19 0h19v19h-19zm19 0h19v19h-19zm57 0h19v19h-19zM24 518h19v19H24zm38 0h19v19H62zm19 0h19v19H81zm19 0h19v19h-19zm38 0h19v19h-19zm38 0h19v19h-19zm19 0h19v19h-19zm57 0h19v19h-19zm38 0h19v19h-19zm57 0h19v19h-19zm19 0h19v19h-19zm19 0h19v19h-19zm76 0h19v19h-19zm38 0h19v19h-19zm57 0h19v19h-19zM24 537h19v19H24zm114 0h19v19h-19zm38 0h19v19h-19zm38 0h19v19h-19zm38 0h19v19h-19zm19 0h19v19h-19zm38 0h19v19h-19zm19 0h19v19h-19zm57 0h19v19h-19zm19 0h19v19h-19zm57 0h19v19h-19zm19 0h19v19h-19zm19 0h19v19h-19zm38 0h19v19h-19zM24 556h19v19H24zm19 0h19v19H43zm19 0h19v19H62zm19 0h19v19H81zm19 0h19v19h-19zm19 0h19v19h-19zm19 0h19v19h-19zm38 0h19v19h-19zm19 0h19v19h-19zm19 0h19v19h-19zm19 0h19v19h-19zm133 0h19v19h-19zm19 0h19v19h-19zm19 0h19v19h-19zm19 0h19v19h-19zm38 0h19v19h-19zm19 0h19v19h-19zm57 0h19v19h-19z"/></svg>