<svg version="1.1" id="Layer_1" xmlns="http://www.w3.org/2000/svg" x="0" y="0" width="569" height="589.25" viewBox="0 0 569 589.25" xml:space="preserve"><path fill="#FFF" d="M556.5 589h-544c-6.6 0-12-5.4-12-12V432.5c0-6.6 5.4-12 12-12h544c6.6 0 12 5.4 12 12V577c0 6.6-5.4 12-12 12"/><path fill="none" stroke="#000" stroke-width=".5" stroke-miterlimit="10" d="M556.5 589h-544c-6.6 0-12-5.4-12-12V432.5c0-6.6 5.4-12 12-12h544c6.6 0 12 5.4 12 12V577c0 6.6-5.4 12-12 12z"/><path fill="red" d="M569 12c0-6.6-5.4-12-12-12H12C5.4 0 0 5.4 0 12v330c0 .338.023.669.051 1H0v106h569V343h-.051c.027-.331.051-.662.051-1V12z"/><path fill="#FFF" d="M153.485 61.001v323.926h-53.081V124.969c-19.508 17.694-44.006 30.849-73.949 39.47v-52.626c14.517-3.63 29.943-9.982 46.275-19.055 16.333-9.982 29.942-20.415 40.831-31.757h39.924zm259.953 21.323c18.146 16.333 27.674 36.748 27.674 61.246 0 16.333-3.63 30.396-10.888 41.739-8.167 11.796-19.962 21.322-35.842 27.674v.907c14.972 4.083 28.129 13.157 39.017 27.221C445.648 256.537 452 274.229 452 294.191c0 29.035-10.888 52.173-31.758 70.319-21.322 17.692-51.265 26.768-89.828 26.768-39.016 0-68.959-9.075-89.828-26.768-21.323-18.146-31.758-41.284-31.758-70.319 0-19.962 5.899-37.655 18.601-53.081 10.889-14.064 23.592-23.138 39.017-27.221v-.907c-16.332-6.352-28.128-15.878-35.841-27.674-7.259-11.343-10.888-25.406-10.888-41.739 0-24.498 9.073-44.913 27.674-61.246 20.416-18.602 48.09-27.674 83.023-27.674 34.481 0 62.154 9.073 83.024 27.675M278.695 252.453c-11.796 10.435-17.24 24.5-17.24 41.739 0 16.332 5.898 29.489 18.147 39.47 11.796 9.981 28.583 14.972 50.812 14.972 21.777 0 39.018-5.444 51.721-15.426 11.341-9.98 17.238-22.684 17.238-39.016 0-17.239-5.897-31.304-16.785-41.284-12.25-11.343-29.489-16.788-52.174-16.788-22.684 0-39.923 5.444-51.719 16.333m5.898-140.187c-9.981 9.074-14.971 19.962-14.971 33.119 0 14.972 4.082 26.768 12.249 35.387 9.98 10.434 25.859 15.879 48.543 15.879 22.23 0 38.563-5.445 48.544-15.879 8.166-8.619 12.249-20.415 12.249-35.387 0-13.157-4.99-24.045-14.971-33.119-11.796-10.435-26.767-15.425-45.822-15.425-19.054 0-34.478 4.99-45.821 15.425M510.563 17v47.484h47.483v21.772h-47.483v47.716h-21.774V86.256h-47.716V64.484h47.716V17z"/><path d="M137.261 462.296v10.661c-3.9 10.92-8.32 22.49-13.39 34.711 8.06 12.09 12.35 22.49 13.001 31.331 0 6.24-1.301 10.79-3.901 13.391-3.9 3.38-10.79 5.2-20.41 5.33l-4.421-13.78c2.861.52 5.331.779 7.281.779 3.12-.26 5.2-.649 6.24-1.43 1.04-.781 1.56-2.21 1.56-4.29 0-8.71-4.42-18.461-13.131-29.251 5.721-12.871 10.271-24.441 13.521-34.711H107.36V578.65H94.1V462.296h43.161zm17.031 97.893c6.63-2.08 13.13-4.55 19.631-7.67l3.25 12.61c-9.62 4.03-21.71 7.931-36.271 11.57l-3.251-11.96c2.081-.78 3.251-1.95 3.251-3.771v-98.804h59.542v59.022h-46.152v39.003zm32.892-85.283h-32.891v10.921h32.891v-10.921zm-32.892 33.932h32.891v-10.79h-32.891v10.79zm53.692 24.441a62.715 62.715 0 0 1-17.681 14.69c5.851 7.41 12.741 13.26 20.801 17.681l-7.93 11.7c-16.121-9.62-27.951-24.831-35.231-45.372l10.27-5.721a86.917 86.917 0 0 0 5.72 12.091c5.33-3.25 10.53-7.8 15.471-13.78l8.58 8.711zm21.706-35.622l-11.05-7.8c5.98-6.631 9.88-15.86 11.57-27.691l12.741 2.081c-.52 3.379-1.17 6.5-1.951 9.359h10.401v-15.08h13.52v15.08h22.751v12.48h-22.751v12.74h26.521v12.61h-26.521v9.881h24.961v34.842c0 8.84-4.68 13.39-13.91 13.39h-6.241l-3.38-12.61 5.46.65c3.381 0 5.201-1.43 5.201-4.29v-19.501h-12.091v44.722h-13.52v-44.722H239.44v36.661h-13.13v-49.142h25.091v-9.881H221.5v-12.61h29.902v-12.74h-14.431c-2.08 4.682-4.551 8.451-7.281 11.571m80.474 52.002h-13.131v-79.303h13.131v79.303zm-7.02 27.692l-2.99-12.87c6.24.52 12.09.779 17.681.779 3.12 0 4.681-1.689 4.681-5.07V458.656h13.52V563.7c0 9.101-4.55 13.65-13.52 13.65h-19.372zm98.278-42.642l-10.79 2.73-1.17-5.201c-12.221 3.641-23.921 6.11-34.972 7.411l-3.25-11.44c2.21-1.04 4.03-2.211 5.59-3.511 4.03-3.64 9.101-10.01 15.081-19.11-5.98.91-12.091 1.82-18.331 2.86l-3.12-11.571c1.95-.909 3.771-2.47 5.33-4.68 5.85-10.141 10.921-21.19 15.341-33.151l12.74 4.811c-5.85 12.74-11.83 23.4-17.94 31.851 4.421-.52 8.971-1.3 13.521-2.08 2.73-4.68 5.721-9.62 8.841-15.08l11.83 4.42c-11.96 19.761-21.841 34.191-29.771 43.162 5.46-1.04 10.92-2.211 16.51-3.641-1.04-3.51-2.21-6.891-3.25-10.141l10.271-3.38c2.729 7.54 5.199 16.121 7.539 25.741m-34.971 11.44c-.65 11.181-2.081 21.19-4.42 29.771l-11.571-3.64c2.601-8.061 4.29-17.161 4.94-27.562l11.051 1.431zm18.07 22.751l-11.44 2.729c-.91-10.14-1.95-18.98-3.25-26.78l10.14-2.08a385.236 385.236 0 0 1 4.55 26.131m14.561-14.82c5.98-17.161 9.1-39.912 9.36-68.383v-11.051h-9.62v-12.221h59.021v6.891c-1.819 11.7-4.029 21.711-6.63 30.031h14.301v12.09c-2.86 14.821-7.931 27.821-15.471 38.743 6.11 6.369 13.001 12.089 20.671 17.159l-9.101 10.791c-7.28-5.591-13.91-11.57-19.631-17.941-7.021 7.41-15.21 13.782-24.7 18.981l-8.581-10.53c9.881-5.46 18.071-11.701 24.701-18.852-5.851-7.93-10.79-16.38-14.95-25.221-2.86 22.491-8.451 40.042-16.641 52.782l-9.621-8.45a111.72 111.72 0 0 0 5.851-11.831l-8.061 3.511a154.629 154.629 0 0 0-5.979-18.071l9.359-3.25c2.081 4.681 4.031 9.621 5.722 14.822m39.262-54.732c2.21-7.15 4.16-15.341 5.85-24.701h-23.271v11.051c0 4.68-.13 9.23-.39 13.65h17.811zm2.859 40.561c5.461-8.45 9.361-17.811 11.441-28.211h-27.432c4.161 10.401 9.491 19.761 15.991 28.211"/></svg>