<svg
  version="1.1"
  id="Layer_1"
  xmlns="https://www.w3.org/2000/svg"
  x="0"
  y="0"
  width="3644.984"
  height="80.261"
  viewBox="0 0 3644.984 80.261"
  xml:space="preserve"
>
  <path
    d="M3642.307 0H2.4c154.264 0 259.084 71.261 450.272 71.261 187.107 0 195.279-68.25 342.448-71.162C990.417 2.946 1157.176 74 1400.718 74 1585.862 74 1621.361 2.63 1815.54.075 1967.298 3.128 2115.527 101.666 2302.001 76 2388.143 64.146 2452.65 1.54 2605.335.038 2803.13 1.542 2970.764 74 3216.7 74c248.523 0 221.883-74 425.607-74z"
  />
  <path
    fill="#F6E0D6"
    d="M3642.307-1H2.4c154.264 0 210.084 66 401.272 66C591.269 65 646.178 1.464 796.231-.923 986.929 1.276 1061.693 51 1304.718 51 1548.845 51 1620.095.826 1815.647-.95 1964.449 1.077 2021.501 65 2209.656 65c189.47 0 243.595-64.806 397.087-65.973C2801.505.327 2875.366 51 3120.7 51c248.523 0 317.883-52 521.607-52z"
  />
</svg>
