<svg
  version="1.1"
  id="Layer_1"
  xmlns="https://www.w3.org/2000/svg"
  x="0"
  y="0"
  width="3644.985"
  height="80.261"
  viewBox="0 0 3644.985 80.261"
  xml:space="preserve"
>
  <path
    d="M3642.307 0H2.4c154.263 0 259.084 71.261 450.272 71.261 187.109 0 195.281-68.25 342.45-71.162C990.417 2.946 1157.175 74 1400.717 74 1585.861 74 1621.36 2.63 1815.54.073 1967.297 3.128 2115.527 101.665 2302 76c86.142-11.855 150.651-74.462 303.335-75.964C2803.129 1.542 2970.764 74 3216.701 74c248.522 0 221.882-74 425.606-74z"
  />
  <path
    fill="#FFF"
    d="M3642.307-1H2.4c154.263 0 210.084 66 401.272 66C591.269 65 646.178 1.464 796.231-.923 986.929 1.276 1061.693 51 1304.717 51 1548.844 51 1620.094.824 1815.646-.95 1964.45 1.077 2021.5 65 2209.656 65 2399.125 65 2453.251.194 2606.743-.973 2801.505.327 2875.367 51 3120.701 51c248.522 0 317.882-52 521.606-52z"
  />
</svg>
