<svg version="1.1" id="Layer_1" xmlns="http://www.w3.org/2000/svg" x="0" y="0" viewBox="0 0 64 64" xml:space="preserve"><path fill="#4C4948" d="M54.4 49.3l-.4-1.7c-.1-.5-.6-.8-1.1-.7s-.9-.2-1.1-.7l-.4-1.7c-.1-.5.2-.9.7-1.1.5-.1.8-.6.7-1.1l-.4-1.7c-.1-.5-.6-.8-1.1-.7s-.9-.2-1.1-.7l-.2-1.6c-.1-.5.2-.9.7-1.1.5-.1.8-.6.7-1.1l-.4-1.7c-.1-.5-.6-.8-1.1-.7l-37.8 8.1c-.6.1-1.1.5-1.3 1.1l-.4 1.1-1.1.2 1.1-.2.1.3c.1.3-.1.6-.5.7-.3.1-.6-.1-.7-.5l-.1-.3L12.1 57c-.1-.3.1-.6.5-.7.3-.1.6.1.7.5l.1.3.8.8c.4.4 1 .6 1.6.5l37.8-8.1c.6 0 .9-.5.8-1zm-44.2-1.9l-.1-.6c-.1-.3.1-.6.5-.7.3-.1.6.1.7.5l.1.6c.1.3-.1.6-.5.7-.3.1-.7-.1-.7-.5zm.7 3.5l-.1-.6c-.1-.3.1-.6.5-.7.3-.1.6.1.7.5l.1.6c.1.3-.1.6-.5.7-.3 0-.6-.2-.7-.5zm1.5 3.9c-.3.1-.6-.1-.7-.5l-.1-.6c-.1-.3.1-.6.5-.7.3-.1.6.1.7.5l.1.6c0 .3-.2.6-.5.7z"/><path fill="#4C4948" d="M0 27.8l1.7.2.8 1.5c.4.8 1.1 1.3 2 1.4L60 37.5c.7.1 1.3-.4 1.4-1.1l.3-2.5c.1-.7-.4-1.3-1.1-1.4-.7-.1-1.2-.7-1.1-1.4l.3-2.5c.1-.7.7-1.2 1.4-1.1s1.3-.4 1.4-1.1l.3-2.5c.1-.7-.4-1.3-1.1-1.4-.7-.1-1.2-.7-1.1-1.4l.3-2.5c.1-.7.7-1.2 1.4-1.1s1.3-.4 1.4-1.1l.3-2.5c.1-.7-.4-1.3-1.1-1.4L7.4 5.6c-.8-.1-1.7.2-2.2.9L4.1 7.8l-1.7-.2"/><path fill="#FFF" d="M9.4 24.7c-1.9-.2-3.3-2-3.1-3.9l.6-5c.2-1.9 2-3.3 3.9-3.1s3.3 2 3.1 3.9c-.1.5-.5.9-1.1.8s-.9-.5-.8-1.1c.1-.9-.5-1.7-1.4-1.8s-1.7.5-1.8 1.4l-.6 5c-.1.9.5 1.7 1.4 1.8.9.1 1.7-.5 1.8-1.4.1-.5.5-.9 1.1-.8.5.1.9.5.8 1.1-.3 2-2 3.3-3.9 3.1zm8.4 1c-1.9-.2-3.3-2-3.1-3.9l.6-5c.2-1.9 2-3.3 3.9-3.1s3.3 2 3.1 3.9l-.6 5c-.3 2-2 3.3-3.9 3.1zM19 15.6c-.9-.1-1.7.5-1.8 1.4l-.6 5c-.1.9.5 1.7 1.4 1.8.9.1 1.7-.5 1.8-1.4l.6-5c.1-.9-.5-1.7-1.4-1.8zm24.5 13.2c-1.9-.2-3.3-2-3.1-3.9l.6-5c.2-1.9 2-3.3 3.9-3.1 1.9.2 3.3 2 3.1 3.9l-.6 5c-.3 1.9-2 3.3-3.9 3.1zm1.2-10.1c-.9-.1-1.7.5-1.8 1.4l-.6 5c-.1.9.5 1.7 1.4 1.8.9.1 1.7-.5 1.8-1.4l.6-5c.1-1-.6-1.7-1.4-1.8zm-18.1 8.1c-1.9-.2-3.3-2-3.1-3.9l.9-7.6c.1-.5.5-.9 1.1-.8s.9.5.8 1.1l-.9 7.6c-.1.9.5 1.7 1.4 1.8s1.7-.5 1.8-1.4l.9-7.6c.1-.5.5-.9 1.1-.8s.9.5.8 1.1l-.9 7.6c-.2 1.7-2 3.1-3.9 2.9zm6.3.7c-.5-.1-.9-.5-.8-1.1l1.2-10.1c.1-.5.5-.9 1.1-.8l2.5.3c1.9.2 3.3 2 3.1 3.9s-2 3.3-3.9 3.1l-1.6-.2-.5 4c-.1.6-.5 1-1.1.9zm1.8-6.8l1.6.2c.9.1 1.7-.5 1.8-1.4s-.5-1.7-1.4-1.8l-1.6-.2-.4 3.2zm20.1 9.4c-.4-.1-.7-.3-.8-.6l-2.5-6.9-.7 6.1c-.1.5-.5.9-1.1.8-.5-.1-.9-.5-.8-1.1l1.2-10.1c.1-.4.4-.8.8-.8.4-.1.9.2 1 .6l2.5 6.9.7-6.1c.1-.5.5-.9 1.1-.8.5.1.9.5.8 1.1l-1.2 10.1c-.1.4-.4.8-.8.8h-.2z"/><path fill="#FFF" stroke="#FFF" stroke-width="2" stroke-miterlimit="10" d="M3.1 8.9c-.5 0-.8-.5-.7-.9l.1-.4 1.7.2-.2.4c0 .4-.5.8-.9.7zm-1.4 19L0 27.8l.1-.4c.1-.5.5-.8.9-.7.5.1.8.5.7.9v.3h0z"/><path fill="#FFF" stroke="#FFF" stroke-width="2" stroke-linecap="round" stroke-linejoin="round" stroke-miterlimit="10" d="M1.3 24.1c-.5-.1-.8-.5-.7-.9l.1-.8c.1-.5.5-.8.9-.7.5.1.8.5.7.9l-.1.8c0 .4-.5.7-.9.7zM2.5 14c-.5-.1-.8-.5-.8-1l.1-.8c.1-.5.5-.8.9-.7.5.1.8.5.7.9l-.1.8c.1.5-.3.8-.8.8zm-.6 5c-.5-.1-.8-.5-.7-.9l.1-.8c.1-.5.5-.8.9-.7.5 0 .8.4.7.9l-.1.8c0 .4-.4.8-.9.7z"/><path fill="#FFF" d="M17.8 53.4c-1.3.3-2.6-.5-2.9-1.9l-.7-3.5c-.3-1.3.5-2.6 1.9-2.9 1.3-.3 2.6.5 2.9 1.9.1.4-.2.7-.5.8-.4.1-.7-.2-.8-.5-.1-.6-.7-1-1.3-.8-.6.1-1 .7-.8 1.3l.7 3.4c.1.6.7 1 1.3.8s1-.7.8-1.3c-.1-.4.2-.7.5-.8.4-.1.7.2.8.5.2 1.4-.6 2.7-1.9 3zm5.7-1.3c-1.3.3-2.6-.5-2.9-1.9l-.7-3.4c-.3-1.3.5-2.6 1.9-2.9 1.3-.3 2.6.5 2.9 1.9l.7 3.4c.3 1.4-.6 2.7-1.9 2.9zm-1.4-6.8c-.6.1-1 .7-.8 1.3L22 50c.1.6.7 1 1.3.8.6-.1 1-.7.8-1.3l-.7-3.4c-.2-.6-.7-1-1.3-.8zM41 48.4c-1.3.3-2.6-.5-2.9-1.9l-.7-3.4c-.3-1.3.5-2.6 1.9-2.9 1.3-.3 2.6.5 2.9 1.9l.7 3.4c.3 1.3-.6 2.6-1.9 2.9zm-1.4-6.9c-.6.1-1 .7-.8 1.3l.7 3.4c.1.6.7 1 1.3.8.6-.1 1-.7.8-1.3l-.7-3.4c-.2-.6-.7-.9-1.3-.8zm-10 9.3c-1.3.3-2.6-.5-2.9-1.9l-1.1-5.2c-.1-.4.2-.7.5-.8.4-.1.7.2.8.5l1.1 5.2c.1.6.7 1 1.3.8.6-.1 1-.7.8-1.3l-1.1-5c-.1-.4.2-.7.5-.8.4-.1.7.2.8.5l1.1 5.2c.3 1.3-.5 2.6-1.8 2.8zm4.3-.9c-.4.1-.7-.2-.8-.5l-1.5-6.9c-.1-.4.2-.7.5-.8l1.7-.4c1.3-.3 2.6.5 2.9 1.9.3 1.3-.5 2.6-1.9 2.9l-1.1.2.6 2.8c.1.4-.1.7-.4.8zm-.4-4.9l1.1-.2c.6-.1 1-.7.8-1.3-.1-.6-.7-1-1.3-.8l-1.1.2.5 2.1zm15.3 1.7c-.2.1-.5 0-.7-.2l-3.2-4 .9 4.1c.1.4-.2.7-.5.8-.4.1-.7-.2-.8-.5L43.1 40c-.1-.3.1-.6.4-.7.3-.1.6-.1.8.2l3.2 4-.9-4.1c-.1-.4.2-.7.5-.8.4-.1.7.2.8.5l1.5 6.9c.1.3-.1.6-.4.7h-.2z"/></svg>