<svg version="1.1" id="Layer_1" xmlns="http://www.w3.org/2000/svg" x="0" y="0" viewBox="0 0 64 64" xml:space="preserve"><g fill="#4C4948"><path d="M60.5 4.5h-57C1.6 4.5 0 6.1 0 8v48c0 1.9 1.6 3.5 3.5 3.5h56.9c1.9 0 3.5-1.6 3.5-3.5V8c.1-1.9-1.5-3.5-3.4-3.5zM25.1 9.9c0-1 .8-1.9 1.9-1.9h9.9c1.1 0 1.9.9 1.9 1.9v1.4c0 1.1-.9 1.9-1.9 1.9H27c-1.1 0-1.9-.9-1.9-1.9V9.9zm-6.9 43.9c0 1.1-.9 1.9-1.9 1.9H6.9c-1.1 0-1.9-.9-1.9-1.9v-1.4c0-1.1.9-1.9 1.9-1.9h9.3c1.1 0 1.9.9 1.9 1.9l.1 1.4zm0-42.5c0 1.1-.9 1.9-1.9 1.9H6.9c-1.1 0-1.9-.9-1.9-1.9V9.9C4.9 8.9 5.8 8 6.9 8h9.3c1.1 0 1.9.9 1.9 1.9l.1 1.4zm20.6 42.5c0 1.1-.9 1.9-1.9 1.9H27c-1.1 0-1.9-.9-1.9-1.9v-1.4c0-1.1.9-1.9 1.9-1.9h9.9c1.1 0 1.9.9 1.9 1.9v1.4zm-6.1-9.1C25.7 44.7 20 39 20 32s5.7-12.7 12.7-12.7S45.4 25 45.4 32c.1 7-5.6 12.7-12.7 12.7zm26.5 9.1c0 1.1-.9 1.9-1.9 1.9H47.2c-1.1 0-1.9-.9-1.9-1.9v-1.4c0-1.1.9-1.9 1.9-1.9h10.1c1.1 0 1.9.9 1.9 1.9v1.4zm0-42.5c0 1.1-.9 1.9-1.9 1.9H47.2c-1.1 0-1.9-.9-1.9-1.9V9.9c0-1.1.9-1.9 1.9-1.9h10.1c1.1 0 1.9.9 1.9 1.9v1.4z"/><path d="M40.3 30.9l-10.7-7.4c-.9-.5-1.6-.2-1.6.8v15.3c0 1 .7 1.3 1.5.8L40.2 33c.9-.6.9-1.5.1-2.1z"/></g></svg>