<svg version="1.1" id="Layer_1" xmlns="http://www.w3.org/2000/svg" x="0" y="0" width="64" height="64" viewBox="0 0 64 64" xml:space="preserve"><g id="googleplus_x5F_circle"><circle fill="#DC4A38" cx="32" cy="32" r="32"/><path d="M33.597 35.053l-2.02-1.567c-.615-.511-1.456-1.184-1.456-2.416 0-1.237.841-2.024 1.57-2.752 2.353-1.852 4.703-3.822 4.703-7.975 0-4.27-2.687-6.516-3.975-7.581h3.472l3.645-2.29h-11.04c-3.03 0-7.396.717-10.592 3.355-2.408 2.078-3.584 4.944-3.584 7.523 0 4.38 3.362 8.818 9.301 8.818.561 0 1.174-.055 1.791-.112-.277.675-.558 1.236-.558 2.19 0 1.739.894 2.805 1.682 3.815-2.522.174-7.232.453-10.704 2.587-3.308 1.967-4.313 4.828-4.313 6.849 0 4.158 3.919 8.031 12.046 8.031 9.637 0 14.737-5.333 14.737-10.611.001-3.878-2.239-5.786-4.705-7.864zm-7.341-6.457c-4.82 0-7.005-6.232-7.005-9.992 0-1.465.277-2.976 1.231-4.156.898-1.125 2.464-1.854 3.926-1.854 4.647 0 7.058 6.288 7.058 10.332 0 1.012-.111 2.806-1.399 4.102-.902.898-2.411 1.568-3.811 1.568zm.056 22.58c-5.995 0-9.86-2.868-9.86-6.855 0-3.986 3.584-5.334 4.817-5.781 2.353-.791 5.379-.901 5.884-.901.561 0 .841 0 1.287.056 4.262 3.033 6.111 4.545 6.111 7.416 0 3.475-2.86 6.065-8.239 6.065zM47.747 28.51v-5.614h-2.773v5.614h-5.606v2.803h5.606v5.65h2.773v-5.65h5.633V28.51z" fill="#FFF"/></g></svg>