<svg version="1.1" id="Layer_1" xmlns="http://www.w3.org/2000/svg" x="0" y="0" viewBox="0 0 64 64" xml:space="preserve"><path fill="#4C4948" d="M1136.8 337.8c-9.3-10-22-15.6-35.8-15.6-10.3 0-19.8 3.3-28.1 9.7-4.2 3.3-8 7.2-11.4 11.9-3.4-4.6-7.2-8.6-11.4-11.9-8.3-6.4-17.8-9.7-28.1-9.7-13.8 0-26.5 5.5-35.8 15.6-9.2 9.9-14.2 23.5-14.2 38.2 0 15.1 5.6 29 17.8 43.6 10.8 13.1 26.4 26.3 44.4 41.7 6.2 5.3 13.1 11.2 20.4 17.5 1.9 1.7 4.4 2.6 6.9 2.6s5-.9 6.9-2.6c7.3-6.3 14.2-12.3 20.4-17.5 18-15.4 33.6-28.6 44.4-41.7 12.1-14.6 17.8-28.5 17.8-43.6 0-14.7-5-28.2-14.2-38.2z"/><path fill="#4C4948" d="M1136.8 337.8c-9.3-10-22-15.6-35.8-15.6-10.3 0-19.8 3.3-28.1 9.7-4.2 3.3-8 7.2-11.4 11.9-3.4-4.6-7.2-8.6-11.4-11.9-8.3-6.4-17.8-9.7-28.1-9.7-13.8 0-26.5 5.5-35.8 15.6-9.2 9.9-14.2 23.5-14.2 38.2 0 15.1 5.6 29 17.8 43.6 10.8 13.1 26.4 26.3 44.4 41.7 6.2 5.3 13.1 11.2 20.4 17.5 1.9 1.7 4.4 2.6 6.9 2.6s5-.9 6.9-2.6c7.3-6.3 14.2-12.3 20.4-17.5 18-15.4 33.6-28.6 44.4-41.7 12.1-14.6 17.8-28.5 17.8-43.6 0-14.7-5-28.2-14.2-38.2zM58.9 9.1C55.6 5.5 51 3.5 46.1 3.5c-3.7 0-7.1 1.2-10 3.5-1.5 1.2-2.9 2.6-4.1 4.2-1.2-1.7-2.6-3.1-4.1-4.2-3-2.3-6.4-3.5-10.1-3.5-4.9 0-9.5 2-12.8 5.6-3.2 3.5-5 8.4-5 13.7 0 5.4 2 10.4 6.3 15.6 3.9 4.7 9.4 9.4 15.9 14.9 2.2 1.9 4.7 4 7.3 6.3.7.6 1.6.9 2.5.9.9 0 1.8-.3 2.5-.9 2.6-2.3 5.1-4.4 7.3-6.3 6.4-5.5 12-10.2 15.9-14.9C62 33.1 64 28.2 64 22.8c0-5.3-1.8-10.2-5.1-13.7z"/></svg>