<svg
  xmlns="https://www.w3.org/2000/svg"
  viewBox="0 0 300 299.999"
  height="299.999"
  width="300"
  xml:space="preserve"
  id="svg2"
  version="1.1"
>
  <defs id="defs6">
    <clipPath id="clipPath18" clipPathUnits="userSpaceOnUse">
      <path id="path16" d="M0 841.89h595.276V0H0z" />
    </clipPath>
  </defs>
  <g transform="matrix(.79415 0 0 -.79415 -87.053 483.852)" id="g10">
    <g id="g12">
      <g
        clip-path="url(#clipPath18)"
        id="g14"
        fill-opacity="1"
        fill-rule="nonzero"
        stroke="none"
      >
        <path
          id="path20"
          d="M186.933 609.271h223.133c42.523 0 77.315-34.792 77.315-77.314V308.824c0-42.523-34.792-77.315-77.315-77.315H186.933c-42.523-.001-77.315 34.791-77.315 77.315v223.133c0 42.522 34.792 77.314 77.315 77.314"
          fill="#3ace01"
        />
        <path
          id="path22"
          d="M298.133 546.695c76.543 0 138.594-49.686 138.594-110.978 0-21.409-7.577-41.399-20.692-58.351-.649-.966-1.497-2.031-2.566-3.209l-.081-.089c-4.48-5.359-9.525-10.391-15.072-15.036-38.326-35.426-101.41-77.601-109.736-71.094-7.238 5.656 11.921 33.321-10.183 37.924-1.542.178-3.08.367-4.605.583l-.029.003v.002c-64.921 9.223-114.222 54.634-114.222 109.267-.002 61.292 62.049 110.978 138.592 110.978"
          fill="#fff"
        />
        <path
          id="path24"
          d="M265.963 400.317h.603c3.976 0 7.228 3.253 7.228 7.23v53.609c0 3.976-3.252 7.228-7.228 7.228h-.603c-3.976 0-7.229-3.252-7.229-7.228v-53.609c0-3.977 3.253-7.23 7.229-7.23m71.209 2.156l.002.003a7.211 7.211 0 0 1 2.09 5.07v53.609c0 3.976-3.252 7.228-7.23 7.228h-.602c-3.977 0-7.229-3.252-7.229-7.228v-31.469l-26.126 35.042c-1.248 2.179-3.598 3.655-6.276 3.655h-.603c-3.976 0-7.229-3.252-7.229-7.228v-53.609c0-3.977 3.252-7.23 7.229-7.23h.603c3.976 0 7.228 3.253 7.228 7.23v32.058l26.315-35.941c.162-.252.338-.494.529-.725l.001-.001c.724-.986 1.712-1.663 2.814-2.076a7.183 7.183 0 0 1 2.742-.544h.603c1.218 0 2.367.307 3.377.845.723.344 1.332.788 1.762 1.311m53.754 31.448v.602c0 3.977-3.252 7.229-7.229 7.229h-20.12v11.444h20.12c3.977 0 7.229 3.253 7.229 7.229v.602c0 3.977-3.252 7.229-7.229 7.229h-27.952c-3.975 0-7.227-3.252-7.227-7.229v-53.608c0-3.977 3.252-7.23 7.227-7.23h27.952c3.977 0 7.229 3.253 7.229 7.23v.602c0 3.977-3.252 7.229-7.229 7.229h-20.12v11.444h20.12c3.977-.002 7.229 3.251 7.229 7.227m-173.205-33.604h27.952c3.976 0 7.228 3.253 7.228 7.23v.602c0 3.977-3.252 7.229-7.228 7.229h-20.121v45.779c0 3.976-3.252 7.228-7.228 7.228h-.603c-3.976 0-7.228-3.252-7.228-7.228v-53.609c0-3.978 3.252-7.231 7.228-7.231"
          fill="#3ace01"
        />
      </g>
    </g>
  </g>
</svg>
