<svg
  version="1.1"
  id="Layer_1"
  xmlns="https://www.w3.org/2000/svg"
  x="0"
  y="0"
  viewBox="0 0 64 64"
  xml:space="preserve"
>
  <g id="surface1" fill="#4C4948">
    <path
      d="M50.8 24.63v-5.87C50.8 8.42 42.38 0 32.03 0S13.26 8.42 13.26 18.77v5.87c-2.84.57-5.02 3.12-5.02 6.12v7.1c0 .69.57 1.26 1.26 1.26s1.26-.57 1.26-1.26v-7.1c0-2.08 1.67-3.75 3.75-3.75h35.01c2.08 0 3.75 1.67 3.75 3.75v27c0 1.64-1.04 3.03-2.49 3.53v-7.54c0-.69-.57-1.26-1.26-1.26s-1.26.57-1.26 1.26v7.76H14.53c-2.08 0-3.75-1.67-3.75-3.75v-9.87c0-.69-.57-1.26-1.26-1.26s-1.26.57-1.26 1.26v9.87c0 3.44 2.81 6.25 6.25 6.25h35.01c3.44 0 6.25-2.81 6.25-6.25v-27c.01-3.03-2.13-5.56-4.97-6.13zm-28.29-.12v-5.74c0-5.24 4.26-9.49 9.49-9.49s9.49 4.26 9.49 9.49v5.74H22.51zm21.51 0v-5.74c0-6.62-5.39-12.02-12.02-12.02s-12.02 5.39-12.02 12.02v5.74h-4.23v-5.74c0-8.96 7.29-16.24 16.24-16.24s16.24 7.29 16.24 16.24v5.74h-4.21z"
    />
    <path
      d="M9.51 44.07c.32 0 .66-.13.88-.38.22-.22.38-.57.38-.88s-.13-.66-.38-.88c-.22-.22-.57-.38-.88-.38-.32 0-.66.13-.88.38-.22.22-.38.57-.38.88s.13.66.38.88c.22.25.56.38.88.38zm22.52 13.21c2.08 0 3.75-1.67 3.75-3.75v-6.66a6.686 6.686 0 0 0 3.03-5.61c0-3.72-3.03-6.75-6.75-6.75s-6.75 3.03-6.75 6.75c0 2.27 1.14 4.35 3 5.61v6.66c-.03 2.05 1.64 3.75 3.72 3.75zm17.51-7.38c.32 0 .66-.13.88-.38.22-.22.38-.57.38-.88 0-.32-.13-.66-.38-.88-.22-.22-.57-.38-.88-.38s-.66.13-.88.38c-.22.22-.38.57-.38.88 0 .32.13.66.38.88.22.22.56.38.88.38z"
    />
  </g>
</svg>
