<svg
  version="1.1"
  id="Layer_1"
  xmlns="https://www.w3.org/2000/svg"
  x="0"
  y="0"
  width="64"
  height="24.3"
  viewBox="0 19.8 64 24.3"
  xml:space="preserve"
>
  <path
    id="logo"
    d="M28.6 31.2c-.6 0-1.1.1-1.6.2l1.8-1.8c2 0 3.8.8 5.2 2.2.1.1.2.1.3.1.1 0 .2 0 .3-.1.2-.2.2-.4 0-.6-1.4-1.4-3.1-2.2-5-2.4l4.9-4.9c.2-.2.2-.4 0-.6-.2-.2-.4-.2-.6 0l-9.4 9.4c-.1-.2-.2-.3-.3-.5l10.1-10.1c.1-.1.1-.2 0-.3-.1-.1-.2-.1-.3 0L23.9 32c-.1-.1-.2-.3-.4-.4l11-11c.2-.2.2-.4 0-.6-.2-.2-.4-.2-.6 0l-8.7 8.7c1.1-3 .4-6.4-2-8.8-.2-.2-.4-.2-.6 0-.2.2-.2.4 0 .6 2.9 2.9 3 7.5.3 10.4-.4-.4-.8-.7-1.2-.9 1-1.1 1.6-2.5 1.6-4.1 0-3.3-2.7-6-6-6-1.6 0-3.1.6-4.2 1.7l-.1.1-1 1v-2.3c0-.2-.1-.3-.2-.4-.1-.1-.3 0-.4.1L.1 31.3c-.1.1-.1.3-.1.5.1.1.2.2.4.2h10.9v.6H.3c-.1 0-.2.1-.2.2s0 .2.1.2h11v.6H.4c-.2 0-.4.2-.4.4s.2.4.4.4h10.9v8.5c0 .2.2.4.4.4s.4-.2.4-.4v-2.6c1 1.8 3 3 5.2 3 2.6 0 4.8-1.6 5.6-3.9.2.6.5 1.1.9 1.6-.3.5-.7 1.1-1.2 1.5-.1.1-.2.2-.2.3 0 .2.2.4.4.4.1 0 .2 0 .3-.1.5-.5.9-1 1.2-1.5 1.1 1 2.5 1.7 4.1 1.7 3.3 0 6-2.7 6-6s-2.5-6.1-5.8-6.1zm-16.4.4c.4-.4.8-.7 1.3-.9.5.4 1 .7 1.6.9-.6.2-1.1.5-1.6.9-.4-.2-.9-.5-1.3-.9zm-.9-.4H4.7l6.6-6.6v6.6zm.8-2.2c.2.4.5.8.8 1.1-.3.2-.6.4-.8.6V29zm2.2 1.3c.9-.4 1.9-.6 3-.6 1 0 2.1.2 3 .6-.8.6-1.9.9-3 .9s-2.1-.3-3-.9zm3 1.7c1.1 0 2.1.3 3 .9-.9.4-1.9.6-3 .6s-2.1-.2-3-.6c.9-.6 1.9-.9 3-.9zm2.2-.4c.6-.2 1.1-.5 1.6-.9.5.3.9.6 1.3.9-.4.4-.8.7-1.3.9-.5-.4-1-.7-1.6-.9zm2.2 1.5zm.5.7l.8-1.4.6.9-1.2.7c-.1-.1-.1-.2-.2-.2zm.4-7.8c0 1.5-.6 2.8-1.6 3.7-1.1-.6-2.4-.8-3.7-.8s-2.5.3-3.7.8c-1-1-1.6-2.3-1.6-3.7s.6-2.7 1.5-3.7c.9-.9 2.3-1.5 3.7-1.5 3-.1 5.4 2.3 5.4 5.2zm-11.3-4.7v2.2l-7.7 7.7H1.4l9.9-9.9zm.8 11.2l.9.6c-.3.3-.6.7-.9 1.1v-1.7zm5.2 10c-2.9 0-5.2-2.4-5.2-5.2 0-1.5.6-2.8 1.6-3.7 1.1.5 2.4.8 3.7.8 1.3 0 2.5-.3 3.7-.8l.3.3-.7 1.3c-.1.2-.1.4.1.5.1.1.2.1.3.1s.1 0 .2-.1l1-.6c.3.7.5 1.4.5 2.2-.2 2.8-2.6 5.2-5.5 5.2zm6-5.3c0-1.1.3-2.1.9-3 .8 1.9.8 4.1 0 6-.5-.8-.9-1.9-.9-3zm5.3 5.3c-1.5 0-2.8-.6-3.7-1.6 1.1-2.3 1.1-5 0-7.3 1-1 2.3-1.6 3.7-1.6 2.9 0 5.2 2.3 5.2 5.2 0 2.9-2.3 5.3-5.2 5.3zM48 31.4h-9.6c-.8 0-1.3.4-1.3 1.3v9.6c0 .8.4 1.3 1.3 1.3H48c.8 0 1.3-.4 1.3-1.3v-9.6c0-.9-.4-1.3-1.3-1.3zM42.7 36v.6h-2.5c-.3 0-.4-.1-.4-.4V36h2.9zm0-1.2v.6h-2.9v-.2c0-.3.1-.4.4-.4h2.5zm.8.6v-.6h2.9c.3 0 .4.1.4.4v.2h-3.3zm0 1.3V36h3.3v.2c0 .3-.1.4-.4.4h-2.9v.1zm0 1.5v-.8H46c0 .1 0 .1.1.2l.3.3c-.8.1-1.8.2-2.9.3zm-.8-5.8v.5H39c-.2 0-.3.1-.3.3s.1.3.3.3h3.7v.6h-2.6c-.6 0-1 .3-1 1v1.3c0 .7.3 1 1 1h2.6v.8c-1.2.1-2.5.1-3.6.1-.4 0-.5.2-.5.4 0 .4.4.4.6.4 2.6 0 4.7-.1 6.3-.3v.9h-6.3c-.2 0-.4.1-.4.4 0 .2.1.4.4.4H41v.1c0 .1 0 .2.1.3l.1.1c.2.1.3.3.4.4l.5.5c.1.1.2.1.3.1.2 0 .3-.1.3-.3v-.2l-.5-.5-.1-.1c-.1-.1-.2-.2-.4-.3l-.1-.1h3.8v.8c0 .3-.2.5-.5.5-.4 0-.8-.1-1.2-.2h-.1c-.2 0-.4.1-.4.5 0 .1.1.1.2.3.6.2 1.1.2 1.4.2.9 0 1.4-.3 1.4-1v-1.1h1.5c.2 0 .4-.1.4-.4 0-.2-.1-.4-.4-.4h-1.5v-1c.3-.1.5-.1.8-.2 0 .1.1.1.1.2.1.1.2.3.3.4.1.1.2.1.3.1.2 0 .3-.1.3-.3 0-.1 0-.2-.1-.2-.2-.3-.4-.6-.7-.8l-.5-.5c.4-.1.6-.4.6-.9v-1.3c0-.6-.3-1-1-1h-3v-.6h4.1c.2 0 .3-.1.3-.3 0-.2-.1-.3-.3-.3h-4.1v-.5c0-.2-.1-.3-.2-.3h4.6c.4 0 .6.2.6.6v9.5c0 .4-.2.6-.6.6h-9.3c-.4 0-.6-.2-.6-.6v-9.5c0-.4.2-.6.6-.6h4.3c.1-.1 0 .1 0 .2zm20.9 8.2h-.5V38c0-.7-.4-1-1-1h-2v-.8h3.4c.2 0 .4-.1.4-.4 0-.2-.1-.4-.4-.4h-2v-.9h1.4c.2 0 .4-.2.4-.4s-.1-.4-.4-.4h-1.4v-.9h1.7c.2 0 .4-.2.4-.4s-.1-.4-.4-.4h-1.7v-.7c0-.2-.1-.3-.4-.4-.2 0-.4.1-.4.4v.7h-2v-.7c0-.2-.1-.3-.4-.4-.2 0-.4.1-.4.4v.7h-1.6c-.2 0-.4.1-.4.4 0 .2.1.4.4.4h1.6v.9h-1.2c-.2 0-.4.1-.4.4 0 .2.1.4.4.4h1.2v.9H56c-.2 0-.4.1-.4.4 0 .2.1.4.4.4h3.3v.8h-1.8c-.7 0-1 .4-1 1v2.5h-.8c-.3 0-.4.2-.4.4s.1.4.4.4h.8v2.3c0 .2.1.4.4.4s.4-.1.4-.4v-2.3h5.1v1.4c0 .3-.2.4-.4.4-.3 0-.7-.1-1.3-.2h-.1c-.3 0-.4.2-.4.4s.1.3.3.4c.5.3 1 .3 1.5.3.7 0 1.1-.4 1.1-1.2v-1.5h.5c.2 0 .4-.1.4-.4 0-.2-.2-.3-.4-.3zm-4.9-6.8v-.9h2v.9h-2zm2 .7v.9h-2v-.9h2zm1.6 5.1v1h-2.2v-1h2.2zm-.4-1.8c.3 0 .4.1.4.4v.7h-2.2v-1.1h1.8zm-2.6 0v1.1h-2.1v-.7c0-.3.1-.4.4-.4h1.7zm0 1.8v1h-2.1v-1h2.1zm-3.6 3.8c-.4-.9-.8-1.7-1.2-2.2-.1-.1-.2-.1-.3-.1-.2 0-.3.2-.4.4v.2c.4.5.8 1.2 1.1 2.1.1.2.2.3.3.3.4 0 .4-.2.4-.4.2-.2.2-.3.1-.3zm-3.2-2.7h1.7c.7 0 1-.3 1-1v-7c0-.7-.4-1-1-1h-1.7c-.7 0-1 .3-1 1v7c-.1.7.3 1 1 1zm-.3-6.2v-1.7c0-.3.1-.5.4-.5h1.3c.3 0 .4.2.4.5v1.7h-2.1zm0 2.5v-1.8h2.2V37h-2.2zm2.2.8v1.8c0 .3-.1.4-.4.4h-1.3c-.3 0-.4-.1-.4-.4v-1.8h2.1zM52.7 41c-.2 0-.4.1-.4.3-.4.8-.8 1.5-1.3 2.1-.1.1-.1.2-.1.3 0 .2.1.3.4.4.1 0 .2 0 .3-.1.6-.6 1-1.4 1.4-2.3v-.2c0-.3-.1-.5-.3-.5z"
  />
</svg>
