<svg
  version="1.1"
  id="Layer_1"
  xmlns="https://www.w3.org/2000/svg"
  x="0"
  y="0"
  viewBox="0 0 64 64"
  xml:space="preserve"
>
  <path
    fill="#4C4948"
    d="M24.35 4.3C13.28 4.3 4.3 13.28 4.3 24.35S13.28 44.4 24.35 44.4 44.4 35.42 44.4 24.35C44.39 13.28 35.42 4.31 24.35 4.3zm0 37.99c-9.91 0-17.94-8.03-17.94-17.94S14.44 6.41 24.35 6.41s17.94 8.03 17.94 17.94c-.01 9.9-8.04 17.93-17.94 17.94z"
  />
  <path
    fill="#4C4948"
    d="M62.41 54.95L48.97 41.51c-.42-.4-1.07-.4-1.49 0l-.75.75-3.14-3.14c8.18-10.65 6.17-25.91-4.48-34.09S13.2-1.14 5.03 9.51-1.14 35.42 9.51 43.6c8.73 6.7 20.88 6.7 29.61 0l3.14 3.14-.75.75c-.41.41-.41 1.08 0 1.49l13.43 13.43a5.275 5.275 0 0 0 7.46.1 5.275 5.275 0 0 0 .1-7.46.902.902 0 0 0-.09-.1zM2.19 24.35c0-12.24 9.92-22.16 22.16-22.16s22.16 9.92 22.16 22.16-9.92 22.16-22.16 22.16C12.12 46.5 2.2 36.58 2.19 24.35zm40.04 16.39l3.01 3.01-1.5 1.5-3.01-3.01c.53-.48 1.03-.98 1.5-1.5z"
  />
</svg>
