<svg version="1.1" id="Layer_1" xmlns="http://www.w3.org/2000/svg" x="0" y="0" viewBox="0 0 64 64" xml:space="preserve"><path fill="#4C4948" stroke="#4C4948" stroke-width="4" stroke-linecap="round" stroke-linejoin="round" stroke-miterlimit="10" d="M57 9.5H7c-2.8 0-5 2.2-5 5v35c0 2.8 2.2 5 5 5h50c2.8 0 5-2.2 5-5v-35c0-2.8-2.2-5-5-5z"/><path fill="#F1F1F1" d="M39.5 31.9C46 26 56 16.8 59.4 13.8c.1.2.1.4.1.7v35c0 .2-.1.4-.1.7C56 47 46 37.5 39.5 31.9z"/><path fill="#FAFAFA" d="M57 12c.2 0 .3.1.5.1-4.3 4-18.7 17.1-23.7 21.6-.4.4-1 .8-1.8.8s-1.4-.4-1.8-.8c-5-4.5-19.4-17.7-23.7-21.6.2 0 .3-.1.5-.1h50z"/><path fill="#F1F1F1" d="M4.6 50.2c-.1-.2-.1-.4-.1-.7v-35c0-.2.1-.5.1-.7C8 16.8 18 26 24.5 31.9 18 37.5 8 47 4.6 50.2z"/><path fill="#FAFAFA" d="M7 52c-.2 0-.4-.1-.6-.1C9.9 48.6 20 39 26.3 33.6c.8.8 1.6 1.4 2.2 2 1 .9 2.2 1.4 3.5 1.4s2.5-.5 3.5-1.4c.6-.5 1.4-1.2 2.2-2 6.4 5.4 16.4 15 19.9 18.3-.2 0-.4.1-.6.1H7z"/><linearGradient id="SVGID_1_" gradientUnits="userSpaceOnUse" x1="-877.923" y1="22.426" x2="-875.789" y2="24.56" gradientTransform="translate(18747.305 -478.311) scale(21.3333)"><stop offset="0" stop-opacity=".2"/><stop offset="1" stop-opacity="0"/></linearGradient><path fill="url(#SVGID_1_)" d="M23.5 32.7c.3-.3.6-.5.9-.8C18 26 8 16.8 4.6 13.8l18.9 18.9zm35.9-18.9C56 16.8 46 26 39.5 31.9 46 37.5 56 47 59.4 50.2c.1-.2.1-.4.1-.7v-35c0-.2-.1-.5-.1-.7zM35.5 35.6c-1 .9-2.2 1.4-3.5 1.4s-2.5-.5-3.5-1.4c-.6-.5-1.4-1.2-2.2-2-.3.3-.7.6-1 .9L42.8 52H57c.2 0 .4-.1.6-.1C54.1 48.6 44 39 37.7 33.6c-.9.8-1.6 1.4-2.2 2z"/></svg>