<svg
  version="1.1"
  id="Layer_1"
  xmlns="https://www.w3.org/2000/svg"
  x="0"
  y="0"
  viewBox="0 0 64 64"
  xml:space="preserve"
>
  <g fill="#4C4948">
    <path
      d="M29.5 23c-2-1.5-4.9-1.5-6.4.8l-8.9 13.6c-1.5 2.1.8 3.7 2.3 2.4l8.9-6.7c.6-.5 1.4-.5 2.1 0l7 5.1c2 1.5 4.9 1.5 6.4-.8l8.9-13.6c1.5-2.1-.8-3.7-2.3-2.4l-8.9 6.7c-.6.5-1.4.5-2.1 0l-7-5.1z"
    />
    <path
      d="M48.2 53.5c-4.7 3.3-10.3 5.1-16.1 5.1-3 0-6-.5-8.9-1.4-.4-.1-.7-.1-1 .1L15 61.5c-.3.2-.6.1-.8 0-.1-.1-.4-.3-.4-.6v-8.3c0-.4-.1-.7-.4-.9-6-5.3-9.4-13-9.4-21 0-5.8 1.8-11.4 5.1-16.1.4-.6.3-1.4-.3-1.7-.6-.4-1.4-.3-1.7.3-3.7 5.2-5.6 11.3-5.6 17.6 0 8.5 3.6 16.7 9.8 22.5V61c0 1.1.6 2.2 1.6 2.8.5.3 1.1.4 1.6.4.6 0 1.1-.1 1.6-.4l6.7-3.9c2.9.9 6 1.4 9.1 1.4 6.3 0 12.4-1.9 17.6-5.6.6-.4.7-1.2.3-1.7-.3-.8-1.1-.9-1.6-.5zm5.4-44.6C47.8 3.2 40.2 0 32 0c-6.3 0-12.4 1.9-17.6 5.6-.6.4-.7 1.2-.3 1.7s1.2.7 1.7.3C20.6 4.2 26.2 2.5 32 2.5c15.5 0 28 12.6 28 28 0 5.8-1.8 11.4-5.1 16.1-.4.6-.3 1.4.3 1.7.2.1.5.2.7.2.4 0 .8-.2 1-.5 3.7-5.2 5.6-11.3 5.6-17.6.1-8-3.1-15.7-8.9-21.5z"
    />
    <path
      d="M50.7 20.3c-1.1-1-2.7-.9-3.9.1L38 27.1c-.1.1-.2.2-.6 0l-7-5.1c-1.4-1.1-3.2-1.5-4.7-1.2-1.4.3-2.6 1.1-3.4 2.3l-8.9 13.5c-1.1 1.7-.7 3.3.3 4.1.5.5 1.2.7 1.9.7s1.4-.3 2-.8l8.9-6.7c.1-.1.2-.2.6 0l7 5.1c1.4 1.1 3.2 1.5 4.7 1.2 1.4-.3 2.6-1.1 3.4-2.3L51 24.5c1.2-1.7.7-3.3-.3-4.2zM49 23.1l-8.9 13.6c-.4.7-1 1.1-1.8 1.2-.9.2-2-.1-2.8-.7l-7-5.1c-1.1-.8-2.5-.8-3.5 0l-8.9 6.7s-.1 0-.1.1c-.3.2-.5.2-.6.1-.2-.2-.1-.6.1-.9l8.9-13.6c.4-.7 1-1.1 1.8-1.2.9-.2 2 .1 2.8.7l7 5.1c1.1.8 2.5.8 3.5 0l8.9-6.7s.1 0 .1-.1c.3-.2.5-.2.6-.1.2.2.1.6-.1.9zm-37.7-12c.3 0 .6-.1.9-.4.5-.5.5-1.3 0-1.8s-1.3-.5-1.8 0-.5 1.3 0 1.8c.3.2.6.4.9.4zm40.5 39.3c-.5.5-.4 1.3.1 1.8.2.2.5.3.9.3s.7-.1.9-.4c.5-.5.4-1.3-.1-1.8-.6-.4-1.3-.4-1.8.1z"
    />
  </g>
</svg>
