<svg
  version="1.1"
  id="Layer_1"
  xmlns="https://www.w3.org/2000/svg"
  x="0"
  y="0"
  viewBox="0 0 64 64"
  xml:space="preserve"
>
  <g fill="#4C4948">
    <path
      d="M22.8 19.6v12.7h4.6v-8.1c0-.6.5-1.2 1.2-1.2h6.9c.6 0 1.2.5 1.2 1.2v8.1h4.6V19.6c0-.6.5-1.2 1.2-1.2h1.2L32 9.5l-11.6 8.9h1.2c.7.1 1.2.6 1.2 1.2z"
    />
    <path d="M29.7 25.4h4.6v6.9h-4.6v-6.9z" />
    <path
      d="M32 64c4.4-5.4 23.1-29.5 23.1-40.9C55.1 10.4 44.8 0 32 0S8.9 10.4 8.9 23.1C8.9 34.5 27.6 58.6 32 64zM16.3 18.7l15-11.5c.4-.3 1-.3 1.4 0l15 11.5c.4.3.6.8.4 1.3-.2.5-.6.8-1.1.8h-3.4v12.7c0 .6-.5 1.2-1.2 1.2H21.6c-.6 0-1.2-.5-1.2-1.2V20.8H17c-.5 0-.9-.3-1.1-.8-.1-.5 0-1 .4-1.3z"
    />
  </g>
</svg>
