<svg
  version="1.1"
  id="Layer_1"
  xmlns="https://www.w3.org/2000/svg"
  x="0"
  y="0"
  viewBox="0 0 64 61"
  xml:space="preserve"
>
  <path
    fill="#4C4948"
    d="M21.6 2.5c-.5 0-1-.3-1.2-.8s0-1.1.4-1.4c.4-.4 1-.4 1.5-.1s.7.8.6 1.3c-.2.6-.7 1-1.3 1z"
  />
  <path
    fill="#4C4948"
    d="M60.1 22.4H43V4c0-2.2-1.8-3.9-4-3.9H27.2C26.5 0 26 .6 26 1.3s.6 1.3 1.3 1.3h11.8c.8 0 1.5.7 1.5 1.4v24.2c0 .8-.7 1.4-1.5 1.4H21.5c-.2 0-.4.1-.6.2l-8.2 4.4v-3.3c0-.7-.6-1.3-1.3-1.3H4c-.8 0-1.5-.7-1.5-1.4V4c0-.8.7-1.4 1.5-1.4h12c.7 0 1.3-.6 1.3-1.3S16.6 0 15.9 0H4C1.8 0 0 1.8 0 3.9v24.2C0 30.3 1.8 32 4 32h6.2v4.1c0 .5.2.8.6 1.1.2.1.4.2.6.2.2 0 .4-.1.6-.2l9.8-5.2h.5v19.7c0 2.2 1.8 3.9 4 3.9h16.1l9.8 5.2c.2.1.4.2.6.2.2 0 .5-.1.6-.2.4-.2.6-.6.6-1.1v-4.1h6c2.2 0 4-1.8 4-3.9V26.3c0-2.2-1.8-3.9-3.9-3.9zm1.4 29.3c0 .8-.7 1.4-1.5 1.4h-7.4c-.7 0-1.3.6-1.3 1.3v3.3l-8.2-4.4c-.2-.1-.4-.2-.6-.2H26.2c-.8 0-1.5-.7-1.5-1.4V32.1H39c2.2 0 4-1.8 4-3.9V25h17c.8 0 1.5.7 1.5 1.4v25.3z"
  />
  <path
    fill="#4C4948"
    d="M49.9 48.5l-5.3-14c-.2-.6-.8-1-1.4-1-.6 0-1.2.4-1.4 1l-5.4 14c-.2.6.1 1.4.7 1.6.6.2 1.4-.1 1.6-.7l1-2.7h6.9l1 2.7c.2.5.7.8 1.2.8.2 0 .3 0 .5-.1.5-.2.9-.9.6-1.6zm-9.3-4.3l2.5-6.6 2.5 6.6h-5zm-11-22.3l-1.3-1.3c1-1.4 1.6-3.1 1.6-4.9 0-4.6-3.8-8.4-8.4-8.4s-8.4 3.8-8.4 8.4 3.8 8.4 8.4 8.4c1.9 0 3.6-.6 5-1.7l1.3 1.3c.2.2.6.4.9.4s.6-.1.9-.4c.5-.6.5-1.4 0-1.8zm-8.1-.3c-3.2 0-5.9-2.6-5.9-5.9s2.6-5.9 5.9-5.9 5.9 2.6 5.9 5.9c0 1.1-.3 2.2-.9 3.1L25 17.3c-.5-.5-1.3-.5-1.8 0s-.5 1.3 0 1.8l1.5 1.5c-.9.6-2 1-3.2 1z"
  />
</svg>
