<svg version="1.1" id="Layer_1" xmlns="http://www.w3.org/2000/svg" x="0" y="0" viewBox="0 0 64 64" xml:space="preserve"><g fill="#4C4948"><path d="M57.3 47.7V20.5c0-.4-.2-.8-.5-1l-3.1-2.2 2.4-1.5c.3-.2.6-.6.6-1s-.2-.8-.5-1.1L53.9 12v-.8H56c.7 0 1.3-.5 1.3-1.3V7.4C57.3 3.3 54 0 49.9 0H7.2C5.2 0 3.3 1 2 2.7S0 6.6 0 8.9c0 4.2 2.7 7.6 6.1 7.6H13v19.8c0 .4.2.8.6 1.1L16 39l-2.6 2.3c-.3.2-.4.6-.4.9v11.2c0 3.2.8 5.9 2.4 7.8 1.5 1.8 3.6 2.8 6 2.8h34.4c4.5 0 8.2-3.7 8.2-8.2 0-4.1-2.9-7.5-6.7-8.1zM10.2 14c.4-.7.6-1.5.6-2.4 0-2.9-1.9-4.9-4.5-4.9C5.6 6.8 5 7.3 5 8s.5 1.3 1.3 1.3c1.3 0 2 .9 2 2.4s-1.1 2.4-2.2 2.4c-2 0-3.6-2.3-3.6-5.1 0-3.5 2.1-6.4 4.6-6.4 1.8 0 3.2.5 4.1 1.6 1.2 1.3 1.8 3.5 1.8 6.4V14h-2.8zm7.1 45.6c-1.2-1.4-1.8-3.6-1.8-6.1V42.8l3.4-3c.3-.3.4-.6.4-1s-.2-.7-.6-.9l-3.2-2.1V10.6c0-3.5-.8-6.3-2.4-8.1h36.8c2.7 0 4.9 2.2 4.9 4.9v1.3h-2.1c-.7 0-1.3.5-1.3 1.3v2.7c0 .4.2.7.5 1l1.3 1-2.5 1.6c-.3.2-.6.6-.6 1s.2.8.5 1.1l4.1 3v26.4H22.3c-2.7 0-4.7 2.1-4.7 4.9 0 2.9 1.9 4.9 4.5 4.9.7 0 1.3-.5 1.3-1.3s-.5-1.3-1.3-1.3c-1.3 0-2-.9-2-2.4s1.1-2.4 2.2-2.4c2 0 3.6 2.3 3.6 5.1 0 3.5-2.1 6.4-4.6 6.4-1.6-.2-3-.9-4-2.1zm38.4 1.9H26.3l.2-.2c1.2-1.6 1.9-3.6 2-5.8H48c.7 0 1.3-.5 1.3-1.3S48.7 53 48 53H28.3c-.3-1.1-.7-2.2-1.4-3h28.8c3.2 0 5.7 2.6 5.7 5.7.1 3.2-2.5 5.8-5.7 5.8z"/><path d="M23.7 12.3c.3 0 .7-.1.9-.4.2-.2.4-.5.4-.9 0-.3-.1-.7-.4-.9-.2-.2-.5-.4-.9-.4-.3 0-.7.1-.9.4-.2.2-.4.5-.4.9 0 .3.1.7.4.9.2.2.5.4.9.4zm5.3 0h18c.7 0 1.3-.5 1.3-1.3 0-.7-.5-1.3-1.3-1.3H29c-.7 0-1.3.5-1.3 1.3 0 .7.6 1.3 1.3 1.3zm-5.3 6.9H47c.7 0 1.3-.5 1.3-1.3 0-.7-.5-1.3-1.3-1.3H23.7c-.7 0-1.3.5-1.3 1.3s.6 1.3 1.3 1.3zm0 7.1H47c.7 0 1.3-.5 1.3-1.3 0-.7-.5-1.3-1.3-1.3H23.7c-.7 0-1.3.5-1.3 1.3 0 .7.6 1.3 1.3 1.3zm0 7H47c.7 0 1.3-.5 1.3-1.3 0-.7-.5-1.3-1.3-1.3H23.7c-.7 0-1.3.5-1.3 1.3 0 .7.6 1.3 1.3 1.3zm0 6.9H47c.7 0 1.3-.5 1.3-1.3 0-.7-.5-1.3-1.3-1.3H23.7c-.7 0-1.3.5-1.3 1.3s.6 1.3 1.3 1.3zM52.9 53c-.3 0-.7.1-.9.4-.2.2-.4.5-.4.9 0 .3.1.7.4.9.2.2.5.4.9.4.3 0 .7-.1.9-.4.2-.2.4-.5.4-.9 0-.3-.1-.7-.4-.9-.3-.3-.6-.4-.9-.4z"/></g></svg>