<svg
  version="1.1"
  id="Layer_1"
  xmlns="https://www.w3.org/2000/svg"
  x="0"
  y="0"
  width="64"
  height="64"
  viewBox="0 0 64 64"
  xml:space="preserve"
>
  <path
    fill="#BDBDBD"
    d="M63.596 55.853L47.586 39.84c2.604-4.035 4.141-8.826 4.141-13.979C51.727 11.601 40.119 0 25.862 0 11.599 0 .001 11.601.001 25.861c0 14.263 11.598 25.863 25.861 25.863 5.15 0 9.938-1.529 13.978-4.137l16.01 16.011c.533.535 1.41.535 1.939 0l5.807-5.807a1.367 1.367 0 0 0 0-1.938zM8.216 25.861c0-9.729 7.916-17.647 17.646-17.647 9.731 0 17.646 7.919 17.646 17.647 0 9.732-7.914 17.649-17.646 17.649-9.73.001-17.646-7.916-17.646-17.649z"
    id="search_2_"
  />
</svg>
