<svg version="1.1" id="Layer_1" xmlns="http://www.w3.org/2000/svg" x="0" y="0" width="64" height="64" viewBox="0 0 64 64" xml:space="preserve"><g id="twitter_x5F_circle"><circle fill="#55ACEE" cx="32" cy="32" r="32"/><path id="path22" fill="#FFF" d="M57 16.494a20.575 20.575 0 0 1-5.892 1.615 10.293 10.293 0 0 0 4.51-5.676 20.484 20.484 0 0 1-6.515 2.488 10.245 10.245 0 0 0-7.486-3.238c-5.665 0-10.257 4.592-10.257 10.258 0 .803.09 1.588.266 2.338-8.525-.428-16.084-4.512-21.143-10.719a10.213 10.213 0 0 0-1.389 5.158 10.25 10.25 0 0 0 4.563 8.537 10.199 10.199 0 0 1-4.646-1.283l-.001.13c0 4.971 3.537 9.115 8.229 10.059a10.282 10.282 0 0 1-4.633.175c1.307 4.074 5.094 7.041 9.584 7.125a20.603 20.603 0 0 1-12.742 4.391c-.827 0-1.645-.049-2.447-.143a29.063 29.063 0 0 0 15.726 4.607c18.867 0 29.183-15.631 29.183-29.188 0-.443-.01-.885-.029-1.326a20.82 20.82 0 0 0 5.118-5.309"/></g></svg>