<svg version="1.1" id="Layer_1" xmlns="http://www.w3.org/2000/svg" x="0" y="0" viewBox="0 0 64 64" xml:space="preserve"><path d="M31.58 30.82c4.24 0 7.9-1.51 10.9-4.51s4.51-6.66 4.51-10.9-1.51-7.9-4.51-10.9S35.81 0 31.58 0s-7.9 1.51-10.9 4.51-4.51 6.66-4.51 10.9 1.51 7.9 4.51 10.9 6.66 4.51 10.9 4.51zM58.55 49.2c-.09-1.24-.27-2.6-.51-4.06-.27-1.45-.6-2.81-1-4.06-.42-1.3-.97-2.57-1.67-3.78-.73-1.27-1.57-2.36-2.51-3.3-1-.94-2.21-1.73-3.63-2.27-1.39-.55-2.97-.85-4.63-.85-.67 0-1.27.27-2.51 1.06-.76.48-1.63 1.06-2.6 1.7-.85.54-1.97 1.03-3.39 1.48-1.36.45-2.76.67-4.12.67s-2.76-.21-4.12-.67c-1.39-.45-2.54-.94-3.36-1.48-.97-.64-1.85-1.18-2.6-1.69-1.21-.79-1.85-1.06-2.51-1.06-1.66 0-3.21.27-4.63.85-1.39.55-2.63 1.33-3.63 2.27-.94.91-1.79 2.03-2.51 3.3-.7 1.21-1.27 2.51-1.66 3.78-.39 1.24-.73 2.63-1 4.06a37.02 37.02 0 0 0-.52 4.06c-.09 1.21-.12 2.48-.12 3.78 0 3.33 1.06 6.06 3.15 8.05C10.5 63 13.26 64 16.59 64h30.82c3.33 0 6.06-1 8.14-2.97 2.09-2 3.15-4.69 3.15-8.05-.03-1.3-.06-2.57-.15-3.78z" fill="#4C4948"/></svg>