<svg
  version="1.1"
  id="Layer_1"
  xmlns="https://www.w3.org/2000/svg"
  x="0"
  y="0"
  viewBox="0 0 64 64"
  xml:space="preserve"
>
  <path
    fill="#4C4948"
    d="M48.6 28.56s4.54-3.98 7.83-8.71c3.76-5.26 7.08-12.03 7.08-12.03.69-2.19.81-4.04-.85-5.26L60.4.93c-1.69-1.22-3.54-.47-5.26.85 0 0-5.58 5.39-9.24 10.47-3.67 5.11-5.67 10.28-5.67 10.28-.56 1.66-.75 3.26.09 4.45l-.81 1.16c-1.47-1.13-2.95-2.13-4.39-2.95-4.51-2.57-8.08-5.01-7.24-7.49l1.53-4.48c.5-1.47-1.82-6.8-3.63-8.62-.59-.6-1.25-1.1-1.81-1.48-1.06-.72-3.95-1.63-6.36-1.44-2.41.19-4.7.66-5.04.91-.22.19-.38.41-.44.66-.09.44.09.94.56 1.41l4.14 4.1c1.44 1.47 1.44 3.85 0 5.3l-4.42 4.42c-.69.69-1.63 1.1-2.63 1.1s-1.94-.38-2.66-1.1L3 14.37c-.47-.47-.97-.66-1.41-.56-.25.06-.47.22-.66.44-.28.34-.72 2.63-.91 5.01-.19 2.41.59 5.26 1.19 6.33.59 1.06 3.04 3.26 5.55 4.32 1.97.85 3.98 1.41 4.76 1.16 0 0 2.01-.69 4.48-1.53 2.48-.85 5.23 2.95 8.12 7.65 1.32 2.13 2.91 4.29 4.67 6.08l-11 15.57c-.88 1.22-.56 2.95.66 3.79.47.34 1.03.5 1.57.5.85 0 1.69-.41 2.22-1.16L33 46.74c1 .75 1.94 1.47 2.82 2.13 2.98 2.19 5.42 4.01 5.42 4.17v.28c0 5.73 4.64 10.37 10.37 10.37s10.37-4.64 10.37-10.37-4.64-10.37-10.37-10.37h-.28c-.16 0-1.53-3.1-3.92-6.46a41.883 41.883 0 0 0-3.89-4.67L44.8 30c1.3.13 2.55-.5 3.8-1.44zm-.78 20.91a5.383 5.383 0 0 1 3.85-1.6c3.01 0 5.42 2.44 5.42 5.45 0 3.01-2.44 5.45-5.42 5.45a5.45 5.45 0 0 1-5.45-5.45c0-1.47.56-2.82 1.6-3.85z"
  />
</svg>
